<svg width="40" height="40" viewBox="0 0 40 40" fill="none" xmlns="http://www.w3.org/2000/svg">
<path d="M20.0004 1.99976C10.0606 1.99976 2.00037 10.0585 2.00037 19.9998C2.00037 27.9529 7.15793 34.7 14.31 37.0802C15.2095 37.2467 15.5398 36.6897 15.5398 36.2142C15.5398 35.7851 15.523 34.367 15.5154 32.8629C10.5076 33.9518 9.45097 30.7392 9.45097 30.7392C8.63218 28.6586 7.45241 28.1055 7.45241 28.1055C5.81934 26.9882 7.57551 27.0111 7.57551 27.0111C9.38307 27.1382 10.3348 28.8661 10.3348 28.8661C11.9403 31.618 14.5457 30.8223 15.5729 30.3625C15.7344 29.199 16.2009 28.405 16.7157 27.9555C12.7177 27.5003 8.51472 25.9568 8.51472 19.0598C8.51472 17.0947 9.2179 15.4888 10.3694 14.2283C10.1825 13.7749 9.56645 11.9442 10.5438 9.46476C10.5438 9.46476 12.0553 8.98097 15.4951 11.3099C16.9308 10.9109 18.4707 10.711 20.0004 10.7042C21.5302 10.711 23.0712 10.9109 24.5097 11.3099C27.9454 8.98097 29.4548 9.46476 29.4548 9.46476C30.4346 11.9442 29.8182 13.7749 29.6313 14.2283C30.7854 15.4888 31.4837 17.0945 31.4837 19.0598C31.4837 25.9732 27.2729 27.4956 23.2647 27.9411C23.9103 28.4998 24.4856 29.5953 24.4856 31.2745C24.4856 33.6829 24.4647 35.6213 24.4647 36.2142C24.4647 36.6932 24.7887 37.2545 25.7012 37.0778C32.8493 34.6949 38.0004 27.9502 38.0004 19.9998C38.0004 10.0585 29.9413 1.99976 20.0004 1.99976Z" fill="#AEDAE0"/>
<path d="M8.74193 27.6413C8.70241 27.7307 8.56152 27.7575 8.43348 27.6962C8.30289 27.6375 8.22948 27.5155 8.27183 27.4257C8.31066 27.3337 8.45154 27.308 8.58185 27.3698C8.71271 27.4284 8.78725 27.5515 8.74193 27.6413ZM9.62736 28.4313C9.54153 28.5109 9.37368 28.4739 9.25975 28.3481C9.14201 28.2226 9.11999 28.0549 9.20709 27.974C9.29561 27.8946 9.45838 27.9317 9.5764 28.0573C9.69414 28.1842 9.71701 28.351 9.62722 28.4314L9.62736 28.4313ZM10.2348 29.4421C10.1244 29.5187 9.94401 29.4469 9.83263 29.2868C9.72237 29.1268 9.72237 28.9348 9.83503 28.8579C9.94683 28.781 10.1244 28.8501 10.2374 29.009C10.3475 29.1717 10.3475 29.3637 10.2347 29.4422L10.2348 29.4421ZM11.262 30.6128C11.1633 30.7215 10.9532 30.6924 10.7994 30.5439C10.6421 30.3988 10.5982 30.1928 10.6972 30.084C10.797 29.975 11.0083 30.0056 11.1633 30.1529C11.3196 30.2977 11.3673 30.5052 11.2621 30.6128H11.262ZM12.5896 31.0081C12.5462 31.149 12.3438 31.2131 12.1399 31.1532C11.9364 31.0915 11.8031 30.9264 11.8442 30.7839C11.8865 30.642 12.0898 30.5753 12.2952 30.6394C12.4985 30.7008 12.6321 30.8647 12.5897 31.0081H12.5896ZM14.1007 31.1757C14.1057 31.3242 13.9328 31.4473 13.7188 31.45C13.5035 31.4546 13.3294 31.3345 13.3272 31.1885C13.3272 31.0386 13.4962 30.9166 13.7113 30.9131C13.9253 30.9088 14.1007 31.0281 14.1007 31.1757ZM15.5849 31.1188C15.6106 31.2636 15.4618 31.4124 15.2494 31.4519C15.0404 31.4901 14.847 31.4007 14.8204 31.2571C14.7944 31.1086 14.946 30.96 15.1545 30.9214C15.3674 30.8844 15.5578 30.9715 15.5849 31.1188Z" fill="#5D5A88"/>
</svg>
