<svg width="40" height="40" viewBox="0 0 40 40" fill="none" xmlns="http://www.w3.org/2000/svg">
<path d="M2.00006 5.98244C2.00006 4.82801 2.40548 3.87563 3.21628 3.1253C4.02708 2.37492 5.08115 1.99976 6.37844 1.99976C7.65258 1.99976 8.68345 2.36914 9.4711 3.10798C10.2819 3.86988 10.6873 4.86265 10.6873 6.08633C10.6873 7.19456 10.2935 8.11806 9.50585 8.8569C8.69505 9.6188 7.6294 9.99975 6.30894 9.99975H6.27419C5.00005 9.99975 3.96918 9.6188 3.18153 8.8569C2.39387 8.09499 2.00006 7.13683 2.00006 5.98244ZM2.4518 36.2855V13.1513H10.1661V36.2855H2.4518ZM14.4402 36.2855H22.1545V23.3677C22.1545 22.5596 22.2472 21.9362 22.4325 21.4976C22.7568 20.7126 23.2491 20.0488 23.9093 19.5062C24.5696 18.9637 25.3977 18.6924 26.3939 18.6924C28.9885 18.6924 30.2858 20.4355 30.2858 23.9218V36.2855H38.0001V23.0214C38.0001 19.6044 37.1893 17.0127 35.5676 15.2465C33.946 13.4803 31.8032 12.5972 29.1391 12.5972C26.1506 12.5972 23.8225 13.8785 22.1545 16.4413V16.5106H22.1198L22.1545 16.4413V13.1513H14.4402C14.4865 13.8901 14.5097 16.1873 14.5097 20.043C14.5097 23.8987 14.4865 29.3129 14.4402 36.2855Z" fill="#AEDAE0"/>
</svg>
