<svg width="55" height="55" viewBox="0 0 55 55" fill="none" xmlns="http://www.w3.org/2000/svg">
<path fill-rule="evenodd" clip-rule="evenodd" d="M2.74982 22.7438C2.74982 11.7182 11.7184 2.74963 22.744 2.74963V2.74997H22.7556C33.7813 2.74997 42.7498 11.7185 42.7498 22.7442C42.7498 33.7695 33.7813 42.7383 22.7556 42.7383C18.6885 42.7383 14.9153 41.5278 11.7535 39.4356L4.06615 41.8918L6.55817 34.4631C4.16037 31.1716 2.74982 27.1165 2.74982 22.7438ZM15.8914 11.9181C16.4789 11.942 16.7728 11.9772 17.1606 12.9057C17.2859 13.208 17.4579 13.6254 17.6465 14.0829C18.1836 15.3859 18.8546 17.0137 18.959 17.2312C19.1 17.5251 19.2413 17.9249 19.0412 18.3127C18.8663 18.6846 18.7117 18.8632 18.4543 19.1606C18.435 19.1829 18.4152 19.2059 18.3947 19.2296C18.2689 19.3756 18.1453 19.5064 18.022 19.6369C17.8572 19.8113 17.693 19.9851 17.5249 20.1936C17.5202 20.1992 17.5154 20.2047 17.5107 20.2102C17.2444 20.5228 16.9549 20.8624 17.29 21.4396C17.6307 22.0155 18.806 23.9313 20.5341 25.4709C22.5849 27.2948 24.2785 27.9796 25.0425 28.2885C25.1106 28.316 25.1713 28.3406 25.2242 28.3627C25.7059 28.5627 26.2821 28.5156 26.6347 28.1394C27.017 27.7274 27.4764 27.0828 27.9545 26.4121C28.0353 26.2987 28.1166 26.1846 28.1982 26.0707C28.5976 25.5064 29.1029 25.4358 29.632 25.6355C30.1727 25.8236 33.0293 27.2341 33.6168 27.528C33.7368 27.5881 33.8485 27.6418 33.9514 27.6913C34.3526 27.8842 34.6213 28.0134 34.7335 28.2098C34.8748 28.4566 34.8748 29.6203 34.3928 30.9841C33.9107 32.3472 31.9946 33.4761 30.4666 33.8052C29.4207 34.0284 28.0569 34.2049 23.461 32.3008C18.0173 30.0466 14.3685 24.7574 13.6263 23.6816C13.5672 23.5959 13.5265 23.5369 13.5049 23.5084C13.4966 23.497 13.4868 23.4836 13.4755 23.4682C13.1021 22.9576 11.1306 20.2622 11.1306 17.478C11.1306 14.6903 12.5077 13.2908 13.1243 12.6641C13.1421 12.646 13.1593 12.6286 13.1758 12.6118C13.6578 12.1181 14.4569 11.8949 15.2213 11.8949C15.4448 11.896 15.6683 11.9037 15.8914 11.9181Z" fill="#AEDAE0"/>
</svg>
